<svg xmlns="http://www.w3.org/2000/svg" width="300" height="24" viewBox="0 0 300 24" fill="none">
  <!-- Visa -->
  <g transform="translate(0, 0)">
    <rect x="0" y="2" width="40" height="20" rx="3" fill="#F9F9F9" stroke="#E5E7EB"/>
    <path d="M17.077 7.9312L15.39 16.075H13.362L15.049 7.9312H17.077ZM26.204 12.643L27.292 9.9077L27.919 12.643H26.204ZM28.443 16.075H30.344L28.596 7.9312H26.857C26.322 7.9312 25.877 8.2418 25.686 8.7342L22.872 16.075H24.927L25.352 14.9H28.089L28.443 16.075ZM22.234 13.7798C22.246 11.4609 19.23 11.3429 19.256 10.4363C19.265 10.1382 19.551 9.8232 20.159 9.744C20.463 9.7035 21.312 9.6736 22.269 10.0954L22.669 8.4138C22.158 8.2267 21.501 8.0469 20.681 8.0469C18.752 8.0469 17.374 9.1045 17.359 10.6388C17.343 11.7542 18.371 12.3753 19.14 12.7511C19.93 13.1356 20.21 13.3867 20.205 13.7299C20.199 14.2691 19.553 14.5042 18.951 14.5168C17.964 14.5372 17.379 14.2418 16.901 14.0327L16.486 15.7678C16.966 15.9753 17.845 16.1553 18.755 16.1665C20.806 16.1663 22.227 15.123 22.234 13.7798ZM14.958 7.9312L11.458 16.075H9.3945L7.684 9.4923C7.569 9.0262 7.47 8.8493 7.128 8.6531C6.579 8.3382 5.684 8.0433 4.9 7.8745L4.971 7.9312H8.0935C8.687 7.9312 9.212 8.3234 9.337 8.9486L10.152 13.6558L12.376 7.9312H14.958Z" fill="#1A1F71"/>
  </g>
  
  <!-- MasterCard -->
  <g transform="translate(55, 0)">
    <rect x="0" y="2" width="40" height="20" rx="3" fill="#F9F9F9" stroke="#E5E7EB"/>
    <path d="M15.825 6H24.175V18H15.825V6Z" fill="#FF5F00"/>
    <path d="M16.575 12C16.575 9.525 17.775 7.35 19.575 6C18.225 4.95 16.5 4.35 14.625 4.35C10.275 4.35 6.75 7.875 6.75 12.225C6.75 16.575 10.275 20.1 14.625 20.1C16.5 20.1 18.225 19.5 19.575 18.45C17.775 17.1 16.575 14.7 16.575 12Z" fill="#EB001B"/>
    <path d="M33.25 12.225C33.25 16.575 29.725 20.1 25.375 20.1C23.5 20.1 21.775 19.5 20.425 18.45C22.225 17.1 23.425 14.925 23.425 12.225C23.425 9.525 22.225 7.35 20.425 6C21.775 4.95 23.5 4.35 25.375 4.35C29.725 4.35 33.25 7.875 33.25 12.225Z" fill="#F79E1B"/>
  </g>
  
  <!-- JCB -->
  <g transform="translate(110, 0)">
    <rect x="0" y="2" width="40" height="20" rx="3" fill="#F9F9F9" stroke="#E5E7EB"/>
    <path d="M23.5 7.5H18.5C16.567 7.5 15 9.067 15 11V11.5H20C21.933 11.5 23.5 13.067 23.5 15C23.5 15.172 23.484 15.342 23.462 15.507C23.219 16.879 22.078 17.936 20.667 18.077C20.447 18.097 20.225 18.1 20 18.1H15V15H20V13.5H15V11.5C15 9.567 16.567 8 18.5 8H23.5V7.5Z" fill="#0F5ABA"/>
    <path d="M32.848 7.5H29.138C26.809 7.5 25.2 9.165 25.2 11.45V14.55C25.2 16.835 26.809 18.5 29.138 18.5H32.848C35.176 18.5 36.3 16.835 36.3 14.55V11.45C36.3 9.165 35.176 7.5 32.848 7.5ZM32.6 15.7H29.4C28.627 15.7 28 15.073 28 14.3V11.7C28 10.927 28.627 10.3 29.4 10.3H32.6C33.373 10.3 34 10.927 34 11.7V14.3C34 15.073 33.373 15.7 32.6 15.7Z" fill="#0F5ABA"/>
    <path d="M11.7524 7.5H7.54762C5.43762 7.5 4 9.165 4 11.45V14.55C4 16.835 5.43762 18.5 7.54762 18.5H11.7524C13.8624 18.5 14.8 16.835 14.8 14.55V11.45C14.8 9.165 13.8624 7.5 11.7524 7.5ZM11.4286 15.7H7.85714C7.10473 15.7 6.5 15.073 6.5 14.3V11.7C6.5 10.927 7.10473 10.3 7.85714 10.3H11.4286C12.181 10.3 12.7857 10.927 12.7857 11.7V14.3C12.7857 15.073 12.181 15.7 11.4286 15.7Z" fill="#0F5ABA"/>
  </g>
  
  <!-- Momo -->
  <g transform="translate(165, 0)">
    <rect x="0" y="2" width="40" height="20" rx="3" fill="#F9F9F9" stroke="#E5E7EB"/>
    <path d="M20 4C13.373 4 8 9.373 8 16C8 22.627 13.373 28 20 28C26.627 28 32 22.627 32 16C32 9.373 26.627 4 20 4ZM13.6 12.6C13.6 10.9428 14.943 9.6 16.6 9.6H19.5C21.157 9.6 22.5 10.9428 22.5 12.6C22.5 14.2572 21.157 15.6 19.5 15.6H16.6C14.943 15.6 13.6 14.2572 13.6 12.6ZM19.063 22.4H16.6C14.943 22.4 13.6 21.0572 13.6 19.4C13.6 17.7428 14.943 16.4 16.6 16.4H19.063C20.72 16.4 22.063 17.7428 22.063 19.4C22.063 21.0572 20.72 22.4 19.063 22.4ZM25.9 19.4C25.9 21.0578 24.558 22.4 22.9 22.4C21.243 22.4 19.9 21.0578 19.9 19.4C19.9 17.7422 21.243 16.4 22.9 16.4C24.558 16.4 25.9 17.7422 25.9 19.4ZM26.4 12.6C26.4 14.2578 25.058 15.6 23.4 15.6C21.743 15.6 20.4 14.2578 20.4 12.6C20.4 10.9422 21.743 9.6 23.4 9.6C25.058 9.6 26.4 10.9422 26.4 12.6Z" fill="#AF1A71" transform="scale(0.6) translate(13, 5)"/>
  </g>
  
  <!-- Bank Transfer -->
  <g transform="translate(220, 0)">
    <rect x="0" y="2" width="40" height="20" rx="3" fill="#F9F9F9" stroke="#E5E7EB"/>
    <path d="M19.9987 7C19.7344 7 19.4702 7.10156 19.2823 7.28906L13.2832 13.289C12.9052 13.668 12.9052 14.2773 13.2832 14.6562C13.6612 15.0352 14.2714 15.0352 14.6495 14.6562L19.9987 9.30469L25.3479 14.6562C25.7259 15.0352 26.3362 15.0352 26.7142 14.6562C27.0923 14.2773 27.0923 13.668 26.7142 13.289L20.7151 7.28906C20.5272 7.10156 20.263 7 19.9987 7ZM14 15.5C13.4477 15.5 13 15.9477 13 16.5V19.5C13 20.0523 13.4477 20.5 14 20.5H26C26.5523 20.5 27 20.0523 27 19.5V16.5C27 15.9477 26.5523 15.5 26 15.5H24V18H16V15.5H14ZM28 15.5C27.4477 15.5 27 15.9477 27 16.5C27 17.0523 27.4477 17.5 28 17.5C28.5523 17.5 29 17.0523 29 16.5C29 15.9477 28.5523 15.5 28 15.5Z" fill="#0074D9"/>
  </g>
  
  <!-- VNPay -->
  <g transform="translate(275, 0)">
    <rect x="0" y="2" width="40" height="20" rx="3" fill="#F9F9F9" stroke="#E5E7EB"/>
    <path d="M19.971 6.10752C12.191 6.10752 5.88721 12.4113 5.88721 20.1913C5.88721 27.9713 12.191 34.2751 19.971 34.2751C27.751 34.2751 34.0548 27.9713 34.0548 20.1913C34.0548 12.4113 27.751 6.10752 19.971 6.10752Z" fill="#1A1F71" transform="scale(0.53) translate(2, 4)"/>
    <path fill-rule="evenodd" clip-rule="evenodd" d="M11.3516 14.5728C11.3516 14.5728 12.8293 12.1359 14.9351 12.1359H24.126C26.178 12.1359 28.087 13.2348 29.1124 15.0311L30.9087 18.0918C30.9087 18.0918 31.6506 19.4424 31.6506 21.2387C31.6506 23.0359 30.9087 24.3856 30.9087 24.3856L25.9223 33.5775C25.9223 33.5775 24.87 35.4996 22.8181 35.4996C20.7662 35.4996 19.7138 33.5775 19.7138 33.5775L14.9351 25.1275H11.3516" fill="#004A9F" transform="scale(0.53) translate(2, 4)"/>
    <path fill-rule="evenodd" clip-rule="evenodd" d="M11.3516 25.1275H14.9351L15.8052 26.7428C15.8052 26.7428 16.5977 28.1872 17.9721 28.1872C19.3465 28.1872 20.139 26.7428 20.139 26.7428L25.3309 17.2218L24.126 15.0311C24.126 15.0311 23.2285 13.5598 21.9049 13.5598C20.5812 13.5598 19.7138 15.0311 19.7138 15.0311L14.9351 23.7042H11.3516V25.1275Z" fill="white" transform="scale(0.53) translate(2, 4)"/>
    <path fill-rule="evenodd" clip-rule="evenodd" d="M26.9986 22.6625C26.9986 24.0113 25.9057 25.1042 24.5569 25.1042C23.208 25.1042 22.1152 24.0113 22.1152 22.6625C22.1152 21.3137 23.208 20.2209 24.5569 20.2209C25.9057 20.2209 26.9986 21.3137 26.9986 22.6625Z" fill="white" transform="scale(0.53) translate(2, 4)"/>
    <path d="M11.7174 14.5859H8.04297V33.4134H11.7174V14.5859Z" fill="#004A9F" transform="scale(0.53) translate(2, 4)"/>
    <path d="M11.7174 14.5859H8.04297V25.0217H11.7174V14.5859Z" fill="#D82F2A" transform="scale(0.53) translate(2, 4)"/>
  </g>
</svg> 